<svg width="17" height="16" viewBox="0 0 17 16" fill="none" xmlns="http://www.w3.org/2000/svg">
<path d="M12.8811 4.88096V4.00477C12.8811 2.35227 12.8811 1.5269 12.3676 1.01345C11.8542 0.5 11.0288 0.5 9.3763 0.5H7.62392C5.97142 0.5 5.14605 0.5 4.6326 1.01345C4.11915 1.5269 4.11915 2.35227 4.11915 4.00477V4.88096M0.719531 8.85887C0.465435 7.00747 0.34014 6.08134 0.864102 5.48115C1.38719 4.88096 2.32208 4.88096 4.191 4.88096H12.8083C14.6781 4.88096 15.6122 4.88096 16.1361 5.48115C16.6601 6.08134 16.5339 7.00747 16.2816 8.85887L15.9223 11.4874C15.7261 12.9332 15.627 13.6551 15.132 14.0871C14.637 14.5191 13.908 14.5191 12.4509 14.5191H4.54936C3.09138 14.5191 2.36239 14.5191 1.86734 14.0871C1.37142 13.6543 1.27328 12.9323 1.07614 11.4883L0.717778 8.85974L0.719531 8.85887Z" stroke="#FFA722"/>
</svg>
