<svg width="11" height="15" viewBox="0 0 11 15" fill="none" xmlns="http://www.w3.org/2000/svg">
<path d="M0 12.2724L0.697763 11.1437C2.36692 12.4024 4.15922 13.0318 6.07464 13.0318C7.01868 13.0318 7.81905 12.806 8.47577 12.3545C9.14617 11.8893 9.48137 11.2121 9.48137 10.3228C9.48137 9.63871 9.18721 9.12565 8.5989 8.78361C7.99691 8.42788 7.10077 8.12005 5.91046 7.8601C2.95523 7.12129 1.27923 6.11569 0.882465 4.8433C0.745649 4.48758 0.677241 4.11133 0.677241 3.71456C0.677241 2.90735 0.909828 2.21642 1.375 1.6418C1.85386 1.05349 2.43533 0.636196 3.11941 0.389926C3.80349 0.129975 4.53546 0 5.31531 0C6.28671 0 7.27179 0.143657 8.27055 0.430971C9.28299 0.718285 10.1381 1.14242 10.8359 1.70336L10.1586 2.8321C9.51557 2.33956 8.68784 1.94963 7.67539 1.66232C7.23758 1.56655 6.81345 1.48446 6.403 1.41605C5.99255 1.375 5.64367 1.35448 5.35636 1.35448C4.49442 1.35448 3.75561 1.54602 3.13993 1.92911C2.53794 2.31219 2.23695 2.90735 2.23695 3.71456C2.23695 4.0566 2.33272 4.37128 2.52426 4.65859C2.7158 4.94591 2.92103 5.1785 3.13993 5.35636C3.37252 5.53422 3.69404 5.70524 4.10449 5.86942C4.52862 6.0336 4.85698 6.14989 5.08957 6.2183C5.32215 6.28671 5.64367 6.37564 6.05412 6.48509C6.5193 6.59455 6.88186 6.69032 7.14181 6.77241C7.41544 6.8545 7.77801 6.97763 8.2295 7.14181C8.68099 7.29231 9.04356 7.45649 9.31719 7.63435C9.59082 7.81221 9.8713 8.03112 10.1586 8.29107C10.4459 8.53734 10.658 8.83833 10.7948 9.19406C10.9316 9.5361 11 9.91234 11 10.3228C11 11.6499 10.5143 12.6623 9.54294 13.3601C8.58522 14.0442 7.42228 14.3862 6.05412 14.3862C4.97327 14.3862 3.89926 14.2015 2.8321 13.8321C1.76493 13.4627 0.820898 12.9428 0 12.2724Z" fill="white"/>
</svg>
