<svg width="104" height="12" viewBox="0 0 104 12" fill="none" xmlns="http://www.w3.org/2000/svg">
<path d="M12 4.58337L8.66653 7.33326L9.708 12L6 9.33347L2.292 12L3.33347 7.33326L0 4.58337L3.99979 3.99979L6 0L8.00021 3.99979L12 4.58337Z" fill="#FFA722"/>
<path d="M35 4.58337L31.6665 7.33326L32.708 12L29 9.33347L25.292 12L26.3335 7.33326L23 4.58337L26.9998 3.99979L29 0L31.0002 3.99979L35 4.58337Z" fill="#FFA722"/>
<path d="M58 4.58337L54.6665 7.33326L55.708 12L52 9.33347L48.292 12L49.3335 7.33326L46 4.58337L49.9998 3.99979L52 0L54.0002 3.99979L58 4.58337Z" fill="#FFA722"/>
<path d="M81 4.58337L77.6665 7.33326L78.708 12L75 9.33347L71.292 12L72.3335 7.33326L69 4.58337L72.9998 3.99979L75 0L77.0002 3.99979L81 4.58337Z" fill="#FFA722"/>
<path d="M104 4.58337L100.667 7.33326L101.708 12L98 9.33347L94.292 12L95.3335 7.33326L92 4.58337L95.9998 3.99979L98 0L100 3.99979L104 4.58337Z" fill="#FFA722"/>
</svg>
