<svg width="32" height="32" viewBox="0 0 32 32" fill="none" xmlns="http://www.w3.org/2000/svg">
<path d="M30.6209 19.3346L27.7138 22.2417L25.8328 20.3606L28.7399 17.4535C29.1254 17.068 29.342 16.5452 29.342 16C29.342 15.4548 29.1254 14.9319 28.7399 14.5464L25.8328 11.6393L27.7138 9.75827L30.6209 12.6654C31.504 13.5505 31.9999 14.7497 31.9999 16C31.9999 17.2502 31.504 18.4495 30.6209 19.3346ZM22.2417 4.28609L20.3606 6.16715L17.4535 3.26006C17.068 2.87455 16.5452 2.65798 16 2.65798C15.4548 2.65798 14.9319 2.87455 14.5464 3.26006L11.6393 6.16715L9.75826 4.28609L12.6654 1.379C13.5505 0.495933 14.7497 5.18785e-06 16 4.66599e-06C17.2502 5.62274e-06 18.4495 0.495934 19.3346 1.379L22.2417 4.28609ZM22.2417 27.7138L19.3346 30.6209C18.4495 31.504 17.2502 31.9999 16 31.9999C14.7497 31.9999 13.5505 31.504 12.6654 30.6209L9.75826 27.7138L11.6393 25.8328L14.5464 28.7399C14.9319 29.1254 15.4548 29.342 16 29.342C16.5452 29.342 17.068 29.1254 17.4535 28.7399L20.3606 25.8328L22.2417 27.7138ZM6.16715 20.3606L4.28609 22.2417L1.37899 19.3346C0.49593 18.4495 1.82056e-06 17.2502 1.73359e-06 16C1.82056e-06 14.7497 0.49593 13.5505 1.37899 12.6654L4.28609 9.75827L6.16715 11.6393L3.26005 14.5464C2.87455 14.9319 2.65797 15.4548 2.65797 16C2.65797 16.5452 2.87455 17.068 3.26005 17.4535L6.16715 20.3606Z" fill="#F8F7FF"/>
</svg>
