<svg width="105" height="17" viewBox="0 0 105 17" fill="none" xmlns="http://www.w3.org/2000/svg">
<path d="M10.9902 8.63C11.7798 8.00878 12.3561 7.15691 12.639 6.19289C12.9219 5.22887 12.8972 4.20065 12.5685 3.25127C12.2398 2.3019 11.6234 1.47858 10.805 0.895861C9.98659 0.313142 9.00691 0 8.00224 0C6.99757 0 6.01789 0.313142 5.19948 0.895861C4.38107 1.47858 3.76463 2.3019 3.43593 3.25127C3.10723 4.20065 3.08261 5.22887 3.3655 6.19289C3.64839 7.15691 4.22471 8.00878 5.0143 8.63C3.66133 9.17205 2.48081 10.0711 1.59861 11.2313C0.716406 12.3915 0.165581 13.7694 0.0048579 15.218C-0.00677608 15.3237 0.00253563 15.4308 0.0322612 15.5329C0.0619867 15.6351 0.111544 15.7304 0.178103 15.8134C0.312527 15.9811 0.508043 16.0884 0.721642 16.1119C0.935241 16.1354 1.14943 16.0731 1.31708 15.9387C1.48473 15.8043 1.59211 15.6088 1.61561 15.3952C1.79246 13.8208 2.54315 12.3668 3.72426 11.3109C4.90537 10.2551 6.43409 9.67138 8.01835 9.67138C9.6026 9.67138 11.1313 10.2551 12.3124 11.3109C13.4935 12.3668 14.2442 13.8208 14.4211 15.3952C14.443 15.5931 14.5374 15.7758 14.6861 15.9082C14.8349 16.0406 15.0274 16.1132 15.2265 16.1119H15.3151C15.5262 16.0877 15.7191 15.9809 15.8519 15.815C15.9846 15.649 16.0464 15.4373 16.0238 15.226C15.8623 13.7733 15.3085 12.3919 14.4218 11.2299C13.535 10.0679 12.3488 9.16918 10.9902 8.63ZM8.00224 8.05819C7.36509 8.05819 6.74224 7.86925 6.21247 7.51526C5.68269 7.16128 5.26979 6.65815 5.02596 6.0695C4.78213 5.48085 4.71833 4.83311 4.84264 4.2082C4.96694 3.58329 5.27376 3.00927 5.72429 2.55873C6.17483 2.1082 6.74885 1.80138 7.37376 1.67708C7.99867 1.55278 8.6464 1.61657 9.23506 1.8604C9.82371 2.10423 10.3268 2.51714 10.6808 3.04691C11.0348 3.57668 11.2237 4.19953 11.2237 4.83668C11.2237 5.69108 10.8843 6.51048 10.2802 7.11463C9.67604 7.71878 8.85664 8.05819 8.00224 8.05819Z" fill="white"/>
<path d="M58.5491 5.45704C58.4822 5.37881 58.3991 5.31601 58.3056 5.27295C58.2121 5.22989 58.1104 5.20759 58.0075 5.2076H53.7313V2.35684C53.7313 1.78979 53.5061 1.24596 53.1051 0.844996C52.7041 0.44403 52.1603 0.218769 51.5933 0.218769H47.3171C46.7501 0.218769 46.2062 0.44403 45.8053 0.844996C45.4043 1.24596 45.179 1.78979 45.179 2.35684V5.2076H40.9029C40.7996 5.20643 40.6973 5.22773 40.603 5.27004C40.5088 5.31234 40.4248 5.37463 40.357 5.45259C40.2892 5.53055 40.2392 5.62232 40.2104 5.72154C40.1816 5.82076 40.1747 5.92505 40.1902 6.02719L41.5301 14.6864C41.5816 15.0263 41.7543 15.3361 42.0162 15.5587C42.2781 15.7814 42.6117 15.9018 42.9554 15.898H55.9692C56.3129 15.9018 56.6465 15.7814 56.9084 15.5587C57.1704 15.3361 57.343 15.0263 57.3946 14.6864L58.7202 6.02719C58.7344 5.92544 58.7265 5.82181 58.697 5.7234C58.6675 5.62499 58.617 5.53413 58.5491 5.45704ZM46.6044 2.35684C46.6044 2.16782 46.6795 1.98655 46.8132 1.85289C46.9468 1.71924 47.1281 1.64415 47.3171 1.64415H51.5933C51.7823 1.64415 51.9635 1.71924 52.0972 1.85289C52.2309 1.98655 52.3059 2.16782 52.3059 2.35684V5.2076H46.6044V2.35684ZM55.9692 14.4726H42.9412L41.7367 6.63298H57.1736L55.9692 14.4726Z" fill="white"/>
<path d="M82.8809 15.4315H105V12.9738H82.8809V15.4315ZM82.8809 9.28725H105V6.82957H82.8809V9.28725ZM82.8809 0.685363V3.14305H105V0.685363H82.8809Z" fill="white"/>
</svg>
